PathFileType	4	(X/Y/Z)	C:/Users/beibeiliu/ov580/test_trc/capture2\sequence.12_training_dense_right.trc
DataRate	CameraRate	NumFrames	NumMarkers	Units	OrigDataRate	OrigDataStartFrame	OrigNumFrames
120	120	8	19	mm	120	231	369
Frame#	Time	ThumbCMC			ThumbMCP			ThumbIP			ThumbTip			IndexMCP			IndexPIP			IndexTip			MiddleMCP			MiddlePIP			MiddleTip			RingMCP			RingPIP			RingTip			PinkyMCP			PinkyPIP			PinkyTip			BackHand1			BackHand2			BackHand3	
		X0	Y0	Z0	X1	Y1	Z1	X2	Y2	Z2	X3	Y3	Z3	X4	Y4	Z4	X5	Y5	Z5	X6	Y6	Z6	X7	Y7	Z7	X8	Y8	Z8	X9	Y9	Z9	X10	Y10	Z10	X11	Y11	Z11	X12	Y12	Z12	X13	Y13	Z13	X14	Y14	Z14	X15	Y15	Z15	X16	Y16	Z16	X17	Y17	Z17	X18	Y18	Z18	
230	1.91667	180.105	107.93	26.7429	158.71	128.733	7.85303	147.61	139.764	-12.7298	136.613	139.487	-37.352	192.948	105.811	-39.6095	171.402	121.425	-51.9232	144.259	132.106	-38.4829	190.286	74.0933	-46.6363	188.205	84.0182	-76.4956	180.688	92.4568	-98.6771	177.228	57.7828	-43.2179	171.49	54.1307	-72.3621	167.529	57.5576	-98.5987	154.142	43.7947	-35.6733	146.756	37.8695	-55.4477	143.556	29.453	-72.2063	175.587	48.0411	7.04841	174.247	44.7242	36.9444	197.398	73.7701	24.139	
231	1.925	187.38	104.838	28.3663	168.17	127.938	7.74607	158.183	140.518	-12.347	145.629	138.476	-35.9805	196.328	98.9669	-40.8698	173.962	121.777	-51.9753	147.76	129.008	-35.9848	186.897	66.6201	-49.017	184.909	75.7616	-78.3597	176.544	82.8395	-100.764	172.541	52.2133	-44.1296	167.488	49.5832	-68.9765	159.103	50.3034	-94.8656	146.719	39.7805	-31.3074	138.338	36.0281	-54.227	137.127	27.5248	-72.6051	174.208	44.0939	5.41118	173.605	39.6997	32.6254	196.497	62.4672	19.669	
232	1.93333	190	95.0102	29.1772	173.613	119.963	9.90985	165.104	135.073	-15.6221	152.845	139.582	-36.4881	194.615	92.248	-44.8835	175.357	114.582	-52.2794	152.588	125.477	-35.8793	185.417	61.2573	-52.8959	183.003	68.2958	-76.5054	173.277	79.1034	-106.654	166.3	44.2693	-46.0956	162.957	46.3915	-73.5064	156.49	49.2045	-97.8699	144.907	39.0441	-33.3483	134.959	35.6991	-54.4065	128.851	29.2735	-70.0254	170.098	38.4816	1.55769	169.834	34.495	36.0869	199.382	58.4675	21.0846	
233	1.94167	193.656	89.7654	28.0132	181.451	117.5	9.00522	173.264	131.735	-16.0647	163.317	139.753	-34.0387	196.189	86.2512	-41.9979	176.936	112.765	-52.235	156.953	122.242	-35.357	187.955	58.0917	-50.5576	183.1	65.7445	-77.0385	175.459	76.9873	-105.857	164.575	42.7245	-45.1058	156.815	42.0851	-69.9074	149.761	46.6125	-98.1103	139.909	39.396	-30.3925	127.462	36.0179	-53.6242	118.958	28.4864	-68.3911	168.623	34.2087	5.73163	171.219	31.3872	31.2489	195.453	49.8108	18.982	
234	1.95	195.162	84.4552	28.2164	184.256	110.545	6.42056	178.479	127.477	-16.2375	168.038	131.854	-36.1006	193.093	81.5598	-46.6715	176.76	106.475	-52.2632	159.33	121.935	-30.8687	183.362	51.5655	-49.8091	181.718	60.027	-75.8638	173.338	72.5799	-105.174	163.16	39.5345	-44.7691	154.719	39.0647	-69.3885	148.878	46.7228	-99.477	134.735	36.2944	-31.2655	127.747	37.7325	-50.285	117.246	30.9911	-68.6305	167.736	30.0977	3.17487	169.238	27.7569	31.6757	194.223	45.0596	17.0631	
235	1.95833	197.182	79.4626	23.9912	188.25	106.354	8.65489	183.136	123.496	-16.4012	173.973	131.247	-35.4518	196.025	77.7486	-43.48	180.699	104.844	-50.9065	158.792	113.833	-33.9525	183.583	47.6785	-51.198	179.607	56.7589	-79.6397	172.855	67.1984	-102.221	159.757	36.4033	-42.9588	151.263	36.3397	-68.6955	144.985	43.6178	-95.0452	137.651	35.3068	-31.4536	120.318	34.5318	-51.6495	111.155	30.3074	-66.9772	169.362	27.6037	4.22351	168.238	23.8781	31.6964	195.312	38.9703	15.813	
236	1.96667	198.982	73.729	24.5735	191.133	100.976	10.2332	184.87	115.569	-16.3587	174.677	123.069	-38.1006	194.598	70.2302	-44.31	183.728	99.0697	-50.336	163.018	114.82	-29.8347	181.587	43.4157	-51.4236	179.962	52.7923	-76.5957	170.074	64.9152	-106.07	156.951	32.3601	-46.8435	149.203	33.6233	-69.4223	144.504	41.9248	-94.1041	134.864	31.8639	-35.5302	122.74	34.8897	-51.7861	109.558	29.1878	-72.4201	161.732	22.6809	2.63087	165.417	20.8431	34.6494	192.794	34.3315	14.8696	
237	1.975	200.785	67.5791	24.0866	194.871	96.8254	7.69009	189.331	110.308	-15.925	178.41	117.513	-36.658	195.564	62.7851	-43.8456	182.7	89.357	-51.6402	161.06	108.266	-29.7216	180.743	38.0093	-54.4047	177.407	48.5179	-79.6161	171.694	61.263	-105.914	156.399	27.906	-48.6846	150.434	31.8252	-69.7115	141.347	37.9935	-94.4288	132.433	28.708	-33.312	116.834	30.284	-50.5509	106.473	29.0781	-70.0656	164.966	17.5708	1.81143	165.92	15.1831	32.0428	193.254	26.3555	17.1681	
